<?xml version="1.0" encoding="UTF-8" standalone="no"?>
<!-- Created with Inkscape (http://www.inkscape.org/) -->

<svg
   xmlns:dc="http://purl.org/dc/elements/1.1/"
   xmlns:cc="http://creativecommons.org/ns#"
   xmlns:rdf="http://www.w3.org/1999/02/22-rdf-syntax-ns#"
   xmlns:svg="http://www.w3.org/2000/svg"
   xmlns="http://www.w3.org/2000/svg"
   xmlns:sodipodi="http://sodipodi.sourceforge.net/DTD/sodipodi-0.dtd"
   xmlns:inkscape="http://www.inkscape.org/namespaces/inkscape"
   width="266.66666"
   height="64"
   viewBox="0 0 250 60"
   id="svg3347"
   version="1.1"
   inkscape:version="0.92.1 r15371"
   sodipodi:docname="ITC-Logo-250x60-Gray-on-Transparent.svg"
   inkscape:export-filename="C:\Users\Bob\Desktop\Michael\ITC Remake\Jaldi Restore\LogoGray.png"
   inkscape:export-xdpi="90"
   inkscape:export-ydpi="90">
  <defs
     id="defs3349" />
  <sodipodi:namedview
     id="base"
     pagecolor="#b2aab6"
     bordercolor="#c46766"
     borderopacity="0"
     inkscape:pageopacity="0"
     inkscape:pageshadow="2"
     inkscape:zoom="1"
     inkscape:cx="13.81823"
     inkscape:cy="26.7557"
     inkscape:document-units="px"
     inkscape:current-layer="layer1"
     showgrid="false"
     units="px"
     inkscape:window-width="1920"
     inkscape:window-height="1017"
     inkscape:window-x="-8"
     inkscape:window-y="-8"
     inkscape:window-maximized="1"
     showborder="true"
     borderlayer="false"
     inkscape:showpageshadow="true" />
  <metadata
     id="metadata3352">
    <rdf:RDF>
      <cc:Work
         rdf:about="">
        <dc:format>image/svg+xml</dc:format>
        <dc:type
           rdf:resource="http://purl.org/dc/dcmitype/StillImage" />
        <dc:title></dc:title>
      </cc:Work>
    </rdf:RDF>
  </metadata>
  <g
     inkscape:label="Layer 1"
     inkscape:groupmode="layer"
     id="layer1"
     transform="translate(0,-992.36216)">
    <g
       id="g5111">
      <g
         transform="matrix(2.4408645,0,0,2.4408645,4.0178066,997.96258)"
         id="g3396">
        <g
           id="g3356">
          <path
             style="fill:#ffb400"
             inkscape:connector-curvature="0"
             d="M 18.999,4.6 C 17.938,4.725 17.179,5.268 16.483,5.842 15.5,6.658 15.181,6.802 14.404,5.887 14.035,5.455 13.757,5.569 13.769,5.995 13.803,7.052 13.247,6.808 12.65,6.62 11.651,6.298 10.632,6.018 9.65,5.649 9.176,5.471 8.288,5.099 8.483,4.777 9.16,3.658 8.228,3.504 7.698,3.082 7.354,2.811 7.537,2.572 7.601,2.219 7.883,0.649 7.05,-0.1 5.664,0.349 5.434,0.423 5.162,0.512 4.946,0.454 3.628,0.099 3.796,0.915 4.033,1.652 4.468,3 3.281,5.471 1.933,5.649 0.598,5.83 0.661,6.388 1.31,7.217 1.916,7.993 1.956,8.405 0.786,8.344 0.416,8.323 -0.067,8.425 0.008,8.929 c 0.209,1.432 1.56,2.228 3.097,1.848 -0.309,3.271 1.688,5.837 2.659,8.714 0.205,0.614 0.592,0.795 1.294,0.138 C 8.22,18.535 8.391,17.215 8.37,15.834 8.357,15.092 8.629,14.61 9.167,14.327 11.155,13.279 12.227,11.042 14.45,10.298 14.751,10.197 14.588,9.756 14.522,9.486 14.421,9.068 14.186,8.673 14.14,8.254 14.091,7.823 14.579,7.147 14.711,7.339 c 0.512,0.75 1.331,0.238 1.996,0.757 -2.521,1.309 0.68,1.162 0.3,1.952 1.235,-1.152 1.28,-2.892 2.608,-3.752 0.353,-0.228 0.833,-0.523 0.573,-0.71 C 19.787,5.295 19.942,4.49 18.999,4.6 Z"
             id="path3358" />
        </g>
        <g
           id="g3360" />
        <g
           id="g3362" />
        <g
           id="g3364" />
        <g
           id="g3374" />
        <g
           id="g3368" />
        <g
           id="g3370" />
        <g
           id="g3372" />
        <g
           id="g3379" />
        <g
           id="g3376" />
        <g
           id="g3378" />
        <g
           id="g3380" />
        <g
           id="g3382" />
        <g
           id="g3384" />
        <g
           id="g3386" />
        <g
           id="g3388" />
      </g>
      <text
         id="text3415"
         y="1024.7712"
         x="59.384453"
         style="font-style:normal;font-variant:normal;font-weight:normal;font-stretch:normal;line-height:0%;font-family:Arial;-inkscape-font-specification:'Arial, Normal';text-align:start;letter-spacing:0px;word-spacing:0px;writing-mode:lr-tb;text-anchor:start;fill:#585858;fill-opacity:1;stroke:none;stroke-width:1px;stroke-linecap:butt;stroke-linejoin:miter;stroke-opacity:1;"
         xml:space="preserve"><tspan
           style="font-style:normal;font-variant:normal;font-weight:normal;font-stretch:normal;font-size:33.23836517px;line-height:125%;font-family:Arial;-inkscape-font-specification:'Arial, Normal';text-align:start;writing-mode:lr-tb;text-anchor:start;fill:#585858;fill-opacity:1;"
           y="1024.7712"
           x="59.384453"
           id="tspan3417"
           sodipodi:role="line">India</tspan></text>
      <text
         id="text3356"
         y="1045.0138"
         x="43.496754"
         style="font-style:normal;font-variant:normal;font-weight:normal;font-stretch:normal;line-height:0%;font-family:Questrial;-inkscape-font-specification:Questrial;letter-spacing:0px;word-spacing:0px;fill:#585858;fill-opacity:1;stroke:none;stroke-width:1px;stroke-linecap:butt;stroke-linejoin:miter;stroke-opacity:1;"
         xml:space="preserve"><tspan
           y="1045.0138"
           x="43.496754"
           id="tspan3358"
           sodipodi:role="line"
           style="font-size:23.15538597px;line-height:1.25;fill:#585858;fill-opacity:1;">Travel Course</tspan></text>
    </g>
  </g>
</svg>
